The F1 Show Malaysia

Aired: 22th March 2013. 10:30 am

Natalie Pinkham and Ted Kravitz bring you all the latest stories and features from Kuala Lumpur, Malaysia

To reduce SKY's LIVE audio sync errors during add-breaks,the commercials have been left intact. Removing them can cause considerable encoding and playback problems as the
live stream switches from Dolby Digital to standard stereo output and back during such breaks, this plays havoc with encoding the audio feed as pure 6 channel AC3 Digital.

All my torrents for F1 2013 are wrapped into MKV format. Resolution is downscaled from 1080i&gt;50 source to 720p with 6 channel AC3 Dolby Digital Audio.
These video files will play very fluidly with the standard media players such as VLC, WMP, KM Player, WMC, MP-HC.

H.264 High Profile 4.1 has been used in combination with 50fps to maintain smooth and fluid playback with HD quality... 

FOR ALL YOUR LATEST F1 NEWS, GOSSIP, TRACK GUIDES, DISCUSSION & FULL TORRENT INFORMATION IN MORE DETAIL, AND ACCESS TO MUCH MORE, PLEASE KEEP YOUR EYE ON THE FORUM: 
http://www.f1racingleague.co.uk/f82-formula-1-2013-torrents

Join my Twitter Feed for all Formula 1 info & get notified via tweets when torrents become available!:
Follow me @

Thank you's,comments and suggestions are always welcome...


Much Appreciated,

Thank you


Theblacknight

**For those having mkv playback issues on Windows 7 or 8, I recommend Shark Codec Packs which are available free here:


Video File Details:
Format : Matroska
Format version : Version 4 / Version 2
File size : 2.11 GiB
Duration : 55mn 32s
Overall bit rate : 5 444 Kbps
Encoded date : UTC 2013-03-22 20:40:13
Writing application : mkvmerge v6.0.0 ('Coming Up For Air') built on Jan 20 2013 09:52:00
Writing library : Lavf54.63.100

Video
ID : 2
Format : AVC
Format/Info : Advanced Video Codec
Format profile : High@L4.1
Format settings, CABAC : Yes
Format settings, ReFrames : 4 frames
Format settings, GOP : M=1, N=2
Codec ID : V_MPEG4/ISO/AVC
Duration : 55mn 32s
Bit rate : 4 952 Kbps
Width : 1 280 pixels
Height : 720 pixels
Display aspect ratio : 16:9
Frame rate mode : Constant
Frame rate : 50.000 fps
Color space : YUV
Chroma subsampling : 4:2:0
Bit depth : 8 bits
Scan type : Progressive
Bits/(Pixel*Frame) : 0.107
Stream size : 1.92 GiB (91%)
Writing library : x264 core 130 r2273
Encoding settings : cabac=1 / ref=4 / deblock=1:0:0 / analyse=0x3:0x133 / me=dia / subme=4 / psy=1 / psy_rd=1.00:0.00 / mixed_ref=0 / me_range=16 / chroma_me=1 / trellis=0 / 8x8dct=1 / cqm=0 / deadzone=21,11 / fast_pskip=1 / chroma_qp_offset=0 / threads=4 / lookahead_threads=1 / sliced_threads=0 / nr=0 / decimate=1 / interlaced=0 / bluray_compat=0 / constrained_intra=0 / bframes=4 / b_pyramid=0 / b_adapt=1 / b_bias=0 / direct=3 / weightb=1 / open_gop=0 / weightp=1 / keyint=500 / keyint_min=50 / scenecut=40 / intra_refresh=0 / rc=cqp / mbtree=0 / qp=22 / ip_ratio=1.40 / pb_ratio=1.30 / aq=0
Default : Yes
Forced : No

Audio
ID : 1
Format : AC-3
Format/Info : Audio Coding 3
Mode extension : CM (complete main)
Format settings, Endianness : Big
Codec ID : A_AC3
Duration : 55mn 32s
Bit rate mode : Constant
Bit rate : 384 Kbps
Channel(s) : 2 channels
Channel positions : Front: L R
Sampling rate : 48.0 KHz
Bit depth : 16 bits
Compression mode : Lossy
Delay relative to video : -20ms
Stream size : 153 MiB (7%)
Default : Yes
Forced : No

